<?xml version="1.0" encoding="UTF-8" standalone="no"?>
<svg
        xmlns="http://www.w3.org/2000/svg"
        width="15"
        height="15"
        viewBox="0 0 15 15"
        version="1.1"
>
    <g
            transform="matrix(1.0000214,0,0,1,-340.07992,-737.9872)"
    >
        <path
                style="fill:#f7d24e;stroke:none"
                d="m 342.43509,746.36652 c 0,2.66245 2.34371,4.8749 5.13739,4.8749 2.79368,0 5.13739,-2.21245 5.13739,-4.8749 -2.79369,0 -5.15614,2.28645 -5.13739,4.33115 0.0187,-2.0447 -2.3437,-4.33115 -5.13739,-4.33115 z"
        />
        <path
                style="fill:#f7d24e;stroke:none"
                d="m 347.62096,739.49801 c -0.79217,0 -1.43434,0.64219 -1.43434,1.43434 8e-5,0.0323 8.6e-4,0.0645 0.003,0.0967 -0.25534,-0.20772 -0.57435,-0.32129 -0.90349,-0.32168 -0.79217,0 -1.43435,0.64218 -1.43435,1.43434 3e-4,0.56988 0.33793,1.08552 0.86014,1.31365 -0.48665,0.24256 -0.79431,0.73943 -0.79451,1.28318 0,0.79216 0.64217,1.43434 1.43434,1.43434 0.31705,-2.5e-4 0.62509,-0.10554 0.87595,-0.29941 -0.002,0.0279 -0.003,0.0558 -0.004,0.0838 0,0.79217 0.64217,1.43435 1.43434,1.43435 0.77907,-8.6e-4 1.41508,-0.62325 1.43258,-1.40212 0.22793,0.14365 0.4917,0.2202 0.76112,0.22089 0.79217,0 1.43434,-0.64218 1.43434,-1.43434 -1.3e-4,-0.5272 -0.28947,-1.01183 -0.7535,-1.26209 0.45311,-0.25315 0.73411,-0.73133 0.73476,-1.25035 0,-0.79217 -0.64219,-1.43436 -1.43434,-1.43436 -0.27869,7e-5 -0.55131,0.0813 -0.78456,0.23379 0.004,-0.0434 0.006,-0.087 0.007,-0.13066 0,-0.79216 -0.64217,-1.43434 -1.43434,-1.43434 z m 0,2.5312 a 1.4343437,1.4343437 0 0 1 1.43434,1.43434 1.4343437,1.4343437 0 0 1 -1.43434,1.43435 1.4343437,1.4343437 0 0 1 -1.43434,-1.43435 1.4343437,1.4343437 0 0 1 1.43434,-1.43434 z"
        />
    </g>
</svg>
