<?xml version="1.0" encoding="UTF-8" standalone="no"?>
<svg
        xmlns="http://www.w3.org/2000/svg"
        width="15"
        height="15"
        viewBox="0 0 15 15"
        version="1.1"
>
    <g
            transform="translate(-339.82143,-737.9872)"
    >

        <path
                style="fill:#fa6a0a;stroke:none;"
                d="m 346.12359,739.8508 c -0.22883,0.006 -0.44526,0.0381 -0.64221,0.0909 -0.32514,0.0873 -0.72954,0.22808 -1.10026,0.50439 -0.37071,0.2763 -0.71288,0.73871 -0.74346,1.32774 -0.006,0.12265 0.0289,0.18791 0.0391,0.29336 -0.45055,0.0573 -0.87236,0.1761 -1.20271,0.44644 -0.51171,0.41876 -0.7566,1.10818 -0.68857,1.84798 0.0704,0.76546 0.56184,1.32971 1.09781,1.64062 0.42552,0.24683 0.88033,0.37056 1.31067,0.3824 l 0,4.80658 6.4661,0 0,-1.19722 1.20942,0 c 0.55046,0 0.99351,-0.44306 0.99351,-0.99352 l 0,-4.22291 c 0,-0.55046 -0.44305,-0.99352 -0.99351,-0.99352 l -1.13929,0 c 0.016,-0.0217 0.0314,-0.0442 0.044,-0.0689 0.38231,-1.05954 0.3515,-1.9897 -0.22139,-2.64998 -0.57289,-0.66028 -1.5919,-0.77974 -2.58595,-0.64832 -0.34463,-0.269 -0.73642,-0.44358 -1.12526,-0.5117 -0.24777,-0.0434 -0.48901,-0.0611 -0.71784,-0.0543 z m 0.0298,1.16063 c 0.15301,-0.005 0.32534,0.003 0.48852,0.0318 0.32636,0.0572 0.60629,0.19294 0.73858,0.3452 0.13539,0.15554 0.34343,0.22713 0.54586,0.18784 0.73218,-0.1417 1.63322,0.14286 1.83761,0.33362 0.1478,0.13795 0.18331,0.51938 0.0555,0.9679 l -3.033,0.008 c -0.19283,5.4e-4 -0.37266,0.0974 -0.47938,0.25799 0,0 -0.35721,0.53766 -0.73005,1.07707 -0.18642,0.2697 -0.37684,0.54065 -0.5239,0.73798 -0.0556,0.0746 -0.0958,0.12334 -0.13356,0.17015 -0.15938,0.0355 -0.32464,0.0723 -0.52634,0.0951 -0.21009,0.0238 -0.62569,-0.0455 -0.93009,-0.22201 -0.3044,-0.17657 -0.49552,-0.39876 -0.52755,-0.74711 -0.0424,-0.46084 0.0689,-0.68302 0.27017,-0.84776 0.20131,-0.16474 0.57695,-0.28235 1.1344,-0.23481 0.49788,0.0424 0.81122,-0.52434 0.51049,-0.92339 -0.0418,-0.0661 -0.0588,-0.27835 -0.0592,-0.41593 0.0109,-0.20863 0.0941,-0.32259 0.27994,-0.46109 0.18583,-0.13849 0.46864,-0.25014 0.70931,-0.3147 0.086,-0.023 0.21964,-0.0413 0.37265,-0.0464 z m 4.94259,3.95944 0.0835,0 c 0.30583,0 0.55196,0.24613 0.55196,0.55195 l 0,2.74635 c 0,0.30582 -0.24613,0.55197 -0.55196,0.55197 l -0.0835,0 c -0.30582,0 -0.55196,-0.24615 -0.55196,-0.55197 l 0,-2.74635 c 0,-0.30582 0.24614,-0.55195 0.55196,-0.55195 z"
        />
    </g>
</svg>
